<svg width="14" height="14" viewBox="0 0 14 14" fill="none" xmlns="http://www.w3.org/2000/svg">
<g clip-path="url(#clip0_170_1868)">
<path d="M-0.000206947 13.4168C-0.000206947 13.5715 0.0612507 13.7199 0.170647 13.8293C0.280043 13.9387 0.428416 14.0002 0.583126 14.0002H13.4165C13.5712 14.0002 13.7195 13.9387 13.8289 13.8293C13.9383 13.7199 13.9998 13.5715 13.9998 13.4168C13.9998 13.2621 13.9383 13.1137 13.8289 13.0043C13.7195 12.8949 13.5712 12.8335 13.4165 12.8335H0.583126C0.428416 12.8335 0.280043 12.8949 0.170647 13.0043C0.0612507 13.1137 -0.000206947 13.2621 -0.000206947 13.4168ZM13.83 4.98882C13.9557 4.75568 14.014 4.49212 13.9982 4.22772C13.9824 3.96332 13.8933 3.70854 13.7408 3.49199C13.4916 3.12631 13.1578 2.82615 12.7678 2.61699L8.39221 0.339654C7.96214 0.116022 7.48453 -0.000732422 6.99979 -0.000732422C6.51505 -0.000732422 6.03745 0.116022 5.60738 0.339654L1.23238 2.61874C0.842386 2.8279 0.50861 3.12806 0.259376 3.49374C0.106867 3.71029 0.0177288 3.96507 0.00196362 4.22947C-0.0138016 4.49387 0.0444307 4.75743 0.170126 4.99057C0.30545 5.24656 0.50841 5.46051 0.756907 5.60913C1.0054 5.75776 1.28991 5.83536 1.57946 5.83349H1.74979V10.5002H1.16646C1.01175 10.5002 0.863377 10.5616 0.75398 10.671C0.644584 10.7804 0.583126 10.9288 0.583126 11.0835C0.583126 11.2382 0.644584 11.3866 0.75398 11.496C0.863377 11.6054 1.01175 11.6668 1.16646 11.6668H12.8331C12.9878 11.6668 13.1362 11.6054 13.2456 11.496C13.355 11.3866 13.4165 11.2382 13.4165 11.0835C13.4165 10.9288 13.355 10.7804 13.2456 10.671C13.1362 10.5616 12.9878 10.5002 12.8331 10.5002H12.2498V5.83349H12.4201C12.7099 5.8353 12.9947 5.75748 13.2433 5.60854C13.492 5.45959 13.6949 5.24522 13.83 4.98882ZM11.0831 10.5002H9.33313V5.83349H11.0831V10.5002ZM8.16646 5.83349V10.5002H5.83313V5.83349H8.16646ZM2.91646 5.83349H4.66646V10.5002H2.91646V5.83349ZM12.7964 4.44807C12.7598 4.51555 12.7053 4.57166 12.6389 4.61024C12.5726 4.64882 12.4969 4.6684 12.4201 4.66682H1.57946C1.50271 4.6684 1.42701 4.64882 1.36064 4.61024C1.29428 4.57166 1.23981 4.51555 1.20321 4.44807C1.17655 4.40348 1.16366 4.35201 1.16615 4.30012C1.16864 4.24823 1.1864 4.19823 1.21721 4.1564C1.35855 3.94635 1.54844 3.77347 1.77079 3.65241L6.14579 1.37332C6.40945 1.23649 6.70215 1.16506 6.99921 1.16506C7.29626 1.16506 7.58896 1.23649 7.85263 1.37332L12.2276 3.65241C12.4499 3.77386 12.6397 3.9469 12.7812 4.15699C12.8121 4.19864 12.83 4.24847 12.8327 4.30024C12.8354 4.35202 12.8227 4.40344 12.7964 4.44807Z" fill="#840F74"/>
</g>
<defs>
<clipPath id="clip0_170_1868">
<rect width="14" height="14" fill="white" transform="matrix(-1 0 0 1 14 0)"/>
</clipPath>
</defs>
</svg>
