<svg width="14" height="14" viewBox="0 0 14 14" fill="none" xmlns="http://www.w3.org/2000/svg">
<g clip-path="url(#clip0_170_1871)">
<path d="M10.1674 6.62083C10.7333 6.04333 11.0833 5.25 11.0833 4.375C11.0833 2.70667 9.79992 1.33 8.16659 1.17833V0.583333C8.16659 0.2625 7.90409 0 7.58325 0C7.26242 0 6.99992 0.2625 6.99992 0.583333V1.16667H5.83325V0.583333C5.83325 0.2625 5.57075 0 5.24992 0C4.92909 0 4.66659 0.2625 4.66659 0.583333V1.16667C3.37742 1.16667 2.33325 2.21083 2.33325 3.5V10.5C2.33325 11.7892 3.37742 12.8333 4.66659 12.8333V13.4167C4.66659 13.7375 4.92909 14 5.24992 14C5.57075 14 5.83325 13.7375 5.83325 13.4167V12.8333H6.99992V13.4167C6.99992 13.7375 7.26242 14 7.58325 14C7.90409 14 8.16659 13.7375 8.16659 13.4167V12.8333H9.04159C10.8091 12.8333 12.2499 11.3925 12.2499 9.625C12.2499 8.24833 11.3808 7.07583 10.1674 6.62083ZM3.49992 3.5C3.49992 2.85833 4.02492 2.33333 4.66659 2.33333H7.87492C9.00075 2.33333 9.91659 3.24917 9.91659 4.375C9.91659 5.50083 9.00075 6.41667 7.87492 6.41667H3.49992V3.5ZM9.04159 11.6667H4.66659C4.02492 11.6667 3.49992 11.1417 3.49992 10.5V7.58333H9.04159C10.1674 7.58333 11.0833 8.49917 11.0833 9.625C11.0833 10.7508 10.1674 11.6667 9.04159 11.6667Z" fill="#840F74"/>
</g>
<defs>
<clipPath id="clip0_170_1871">
<rect width="14" height="14" fill="white"/>
</clipPath>
</defs>
</svg>
