<svg width="14" height="14" viewBox="0 0 14 14" fill="none" xmlns="http://www.w3.org/2000/svg">
<g clip-path="url(#clip0_170_1874)">
<path d="M11.0833 0H2.91667C1.30667 0 0 1.30667 0 2.91667V3.5C0 4.01333 0.2275 4.47417 0.583333 4.795V11.0833C0.583333 12.6933 1.89 14 3.5 14H10.5C12.11 14 13.4167 12.6933 13.4167 11.0833V4.795C13.7725 4.47417 14 4.01333 14 3.5V2.91667C14 1.30667 12.6933 0 11.0833 0ZM12.25 11.0833C12.25 12.0458 11.4625 12.8333 10.5 12.8333H3.5C2.5375 12.8333 1.75 12.0458 1.75 11.0833V5.25H12.25V11.0833ZM12.8333 3.5C12.8333 3.82083 12.5708 4.08333 12.25 4.08333H1.75C1.42917 4.08333 1.16667 3.82083 1.16667 3.5V2.91667C1.16667 1.95417 1.95417 1.16667 2.91667 1.16667H11.0833C12.0458 1.16667 12.8333 1.95417 12.8333 2.91667V3.5ZM4.66667 7.945C4.66667 7.09917 5.355 6.41667 6.195 6.41667H6.41667C6.41667 6.09583 6.67917 5.83333 7 5.83333C7.32083 5.83333 7.58333 6.09583 7.58333 6.41667H7.74083C8.365 6.41667 8.9425 6.74917 9.2575 7.29167C9.42083 7.57167 9.32167 7.9275 9.0475 8.09083C8.7675 8.25417 8.41167 8.155 8.24833 7.88083C8.14333 7.7 7.95083 7.58917 7.74083 7.58917H6.20083C6.0025 7.58917 5.83917 7.7525 5.83917 7.95083C5.83917 8.13167 5.9675 8.28333 6.1425 8.3125L8.05583 8.63333C8.79667 8.75583 9.33333 9.39167 9.33333 10.1442C9.33333 10.99 8.645 11.6725 7.805 11.6725H7.58333C7.58333 11.9933 7.32083 12.2558 7 12.2558C6.67917 12.2558 6.41667 11.9933 6.41667 11.6725H6.25917C5.635 11.6725 5.0575 11.34 4.7425 10.7975C4.57917 10.5175 4.67833 10.1617 4.95833 9.99833C5.23833 9.835 5.59417 9.93417 5.7575 10.2083C5.8625 10.3892 6.055 10.5 6.265 10.5H7.805C8.00333 10.5 8.16667 10.3367 8.16667 10.1383C8.16667 9.9575 8.03833 9.80583 7.86333 9.77667L5.95 9.45583C5.20917 9.33333 4.6725 8.6975 4.6725 7.945H4.66667Z" fill="#840F74"/>
</g>
<defs>
<clipPath id="clip0_170_1874">
<rect width="14" height="14" fill="white"/>
</clipPath>
</defs>
</svg>
