<svg width="922" height="871" viewBox="0 0 922 871" fill="none" xmlns="http://www.w3.org/2000/svg">
<g clip-path="url(#clip0_530_727)">
<path d="M653.1 107.5H269C193.9 107.5 133.1 168.4 133.1 243.4V627.5C133.1 702.6 194 763.4 269 763.4H653.1C728.2 763.4 789 702.5 789 627.5V243.4C789 168.3 728.1 107.5 653.1 107.5ZM461 662.7C335.5 662.7 233.8 561 233.8 435.5C233.8 310 335.5 208.3 461 208.3C586.5 208.3 688.2 310 688.2 435.5C688.2 561 586.5 662.7 461 662.7Z" fill="white"/>
<path d="M578.9 332.9L557.7 348.7V522.3L578.9 538.1V541.7H475.7V538.1L496.9 522.3V437.6H425V522.3L446.2 538.1V541.7H343V538.1L364.2 522.3V348.7L343 332.9V329.3H446.2V332.9L425 348.7V429.7H496.9V348.7L475.7 332.9V329.3H578.9V332.9Z" fill="white"/>
</g>
<defs>
<clipPath id="clip0_530_727">
<rect width="922" height="871" fill="white"/>
</clipPath>
</defs>
</svg>
