<svg width="155" height="22" viewBox="0 0 155 22" fill="none" xmlns="http://www.w3.org/2000/svg">
<path d="M0 2.19897H3.77243V9.34306H0V2.19897ZM0 10.1636H18.2852V13.1394H0V10.1636ZM0 13.9709H3.77243V21.4979H0V13.9709ZM14.5128 2.19897H18.2852V9.34306H14.5128V2.19897ZM14.5128 13.9709H18.2852V21.4979H14.5128V13.9709Z" fill="#780D69"/>
<path d="M28.7149 6.36737V9.12435C26.0076 9.28846 24.2989 11.2249 24.2989 14.1132C24.2989 17.0014 26.0298 19.0254 28.7149 19.1895V21.8918C23.9882 21.7277 20.9148 18.7738 20.9148 14.1132C20.9148 9.45257 23.966 6.5643 28.7149 6.36737ZM25.1643 12.319H33.7522C33.3638 10.3934 31.7661 9.23376 29.6136 9.12435V6.36737C34.6176 6.5643 37.5801 9.8683 37.1362 14.8899L25.1643 14.8571V12.319ZM33.9963 15.24L36.6481 17.3406C35.5274 20.0648 32.9866 21.7496 29.6025 21.8918V19.1895C32.0102 19.0254 33.5968 17.5047 33.9963 15.251V15.24Z" fill="#780D69"/>
<path d="M38.8005 17.1984C38.8005 15.1635 39.3886 13.785 40.9863 12.5378L41.9072 11.8157C43.2165 10.7983 44.2262 10.4372 45.9349 10.4372H47.8876V9.58387H38.967V6.79407H49.1192V10.1856L44.8919 13.0301C43.2165 14.1898 42.5397 15.1307 42.5397 16.3669C42.5397 17.6032 43.7934 19.1567 45.6131 19.1567C48.2094 19.1567 50.0069 16.9796 50.0069 12.866V6.80501H53.5574V21.498H50.0069V17.45H49.2746C48.8862 20.3492 46.7004 21.859 43.8822 21.859C41.064 21.859 38.7894 19.9007 38.7894 17.1984H38.8005Z" fill="#780D69"/>
<path d="M68.636 9.5947H55.1884V6.8049H68.636V9.5947ZM65.7623 18.719H68.6471V21.5088H64.8747C61.2354 21.5088 59.2271 19.5286 59.2271 15.8307V10.4043H62.7555V15.5353C62.7555 17.6359 63.7873 18.7299 65.7734 18.7299L65.7623 18.719ZM59.3603 2.61472L62.7444 0.820496V5.95155H59.3603V2.61472Z" fill="#780D69"/>
<path d="M70.7331 0H74.2836V9.95577H70.7331V0ZM70.7331 10.7982H75.0159C75.2378 7.9865 77.3903 6.4439 80.1309 6.4439C82.8714 6.4439 85.2458 8.40223 85.2458 11.9032V13.7193H81.7175V12.5596C81.7175 10.3496 80.4083 9.16806 78.5553 9.16806C76.7024 9.16806 74.2725 11.4874 74.2725 15.5354V21.487H70.722V10.7872L70.7331 10.7982ZM81.7286 14.5507H85.2569V21.4979H81.7286V14.5507Z" fill="#780D69"/>
<path d="M95.3981 6.36737V9.12435C92.6909 9.28846 90.9822 11.2249 90.9822 14.1132C90.9822 17.0014 92.7131 19.0254 95.3981 19.1895V21.8918C90.6715 21.7277 87.5981 18.7738 87.5981 14.1132C87.5981 9.45257 90.6493 6.5643 95.3981 6.36737ZM91.8476 12.319H100.435C100.047 10.3934 98.4494 9.23376 96.2969 9.12435V6.36737C101.301 6.5643 104.263 9.8683 103.82 14.8899L91.8476 14.8571V12.319ZM100.68 15.24L103.331 17.3406C102.211 20.0648 99.6699 21.7496 96.2858 21.8918V19.1895C98.6935 19.0254 100.28 17.5047 100.68 15.251V15.24Z" fill="#780D69"/>
<path d="M106.216 6.80487H109.767V11.8812H110.499C110.754 8.29276 112.873 6.67358 116.202 6.67358H118.077V9.7369H116.013C112.851 9.7369 110.954 11.1154 110.199 13.6536H106.227V6.81581L106.216 6.80487ZM106.216 14.496H109.966C109.822 15.1852 109.767 15.962 109.767 16.7825V21.4978H106.216V14.496Z" fill="#780D69"/>
<path d="M133.4 5.62332H136.784C136.695 6.75018 136.451 7.72388 135.918 8.90544L130.415 21.5088H126.532L133.411 5.62332H133.4ZM134.654 13.9162H139.746L140.834 16.6403H133.477L134.654 13.9162ZM134.875 2.19897H139.513L147.957 21.4979H143.874L138.504 8.94921C137.86 7.46131 137.638 6.38915 137.638 4.75903H133.755L134.875 2.19897Z" fill="#780D69"/>
<path d="M154.026 2.19897V21.4979H150.254V2.19897H154.026Z" fill="#780D69"/>
</svg>
