<?xml version="1.0" encoding="UTF-8"?>
<svg id="Layer_1" data-name="Layer 1" xmlns="http://www.w3.org/2000/svg" viewBox="0 0 1829 367">
  <defs>
    <style>
      .cls-1 {
        fill: #ededed;
      }
    </style>
  </defs>
  <path class="cls-1" d="M36.15,82.26h43.05v92.16h122.45v-92.16h43.05v223.21h-43.05v-96.62h-122.45v96.62h-43.05V82.26Z"/>
  <path class="cls-1" d="M274.99,220.65c0-54.53,36.67-90.56,93.75-90.56,60.27,0,95.98,38.9,91.2,102.04l-114.8-.32c-15.31,0-21.68-4.78-22.64-19.13h-8.93l-.32,7.33c0,37.95,21.05,60.91,55.17,60.91,27.42,0,46.56-15.94,53.25-41.14l29.66,26.15c-15.31,28.38-44.64,44.32-82.59,44.32-57.08,0-93.75-34.44-93.75-89.6ZM421.36,202.47c-3.19-26.79-24.23-42.09-52.62-42.09s-48.15,15.31-53.57,42.09h106.19Z"/>
  <path class="cls-1" d="M478.76,255.73c0-23.6,7.33-40.18,27.42-56.12l7.97-6.38c14.99-11.48,26.47-15.63,45.92-15.63h22.32v-9.88h-101.72v-32.21h166.45v169.96h-40.5v-46.88h-8.29c-4.15,33.8-29.34,51.02-61.54,51.02-35.08,0-58.04-22.64-58.04-53.89ZM606.63,205.66v-38.58l-58.35,40.18c-19.13,13.39-26.79,24.55-26.79,38.9,0,20.09,14.35,32.21,35.08,32.21,29.66,0,50.06-25.19,50.06-72.7Z"/>
  <path class="cls-1" d="M711.54,239.78v-72.07h-45.92v-32.21h47.51v-48.47l38.58-20.73v69.2h67.28v32.21h-91.84v9.57h5.74c12.76.32,18.81,8.29,18.81,19.77v39.22c0,24.23,11.8,36.99,34.44,36.99h32.84v32.21h-43.05c-41.45,0-64.41-22.96-64.41-65.69Z"/>
  <path class="cls-1" d="M842.92,56.75h40.5v125h8.29c2.55-32.53,27.1-50.38,58.36-50.38,36.35,0,58.35,22.64,58.35,63.14v110.97h-40.18v-103.32c0-25.51-14.99-39.22-36.03-39.22-29.66,0-48.79,26.79-48.79,73.66v68.88h-40.5V56.75Z"/>
  <path class="cls-1" d="M1035.52,220.65c0-54.53,36.67-90.56,93.75-90.56,60.27,0,95.98,38.9,91.2,102.04l-114.8-.32c-15.31,0-21.68-4.78-22.64-19.13h-8.93l-.32,7.33c0,37.95,21.05,60.91,55.17,60.91,27.42,0,46.56-15.94,53.25-41.14l29.66,26.15c-15.31,28.38-44.64,44.32-82.59,44.32-57.08,0-93.75-34.44-93.75-89.6ZM1181.88,202.47c-3.19-26.79-24.23-42.09-52.62-42.09s-48.15,15.31-53.57,42.09h106.19Z"/>
  <path class="cls-1" d="M1247.57,135.51h40.5v58.67h8.29c2.87-41.45,27.1-60.27,65.05-60.27h21.36v35.4h-23.6c-48.79,0-71.11,29.02-71.11,81.63v54.53h-40.5v-169.96Z"/>
  <path class="cls-1" d="M1574.42,82.26h52.93l96.3,223.21h-46.56l-23.6-56.12h-105.87l-24.24,56.12h-44.32l95.34-223.21ZM1640.11,217.78l-24.23-57.4c-7.33-17.22-9.89-29.66-9.89-48.47h-9.57c0,18.18-2.87,30.61-10.2,47.83l-24.87,58.04h78.76Z"/>
  <path class="cls-1" d="M1792.85,82.26v223.21h-43.05V82.26h43.05Z"/>
</svg>