<svg width="45" height="59" viewBox="0 0 45 59" fill="none" xmlns="http://www.w3.org/2000/svg">
<path d="M44.3129 48.7754C38.6204 47.4129 33.8328 45.2219 30.0816 42.2649C30.8783 41.026 31.6143 39.7362 32.2692 38.4068C35.0626 32.7668 36.0926 27.4889 36.4625 24.7434L43.9868 26.2666L43.9997 23.9201C44.0693 10.7869 34.5276 0.0601675 22.734 0.000262827C10.939 -0.0609164 1.2852 10.5664 1.21559 23.6996L1.2027 26.0652L8.76307 24.5701C9.10338 27.3283 10.0676 32.6368 12.8107 38.3163C13.4514 39.6431 14.1733 40.9496 14.957 42.1872C11.1852 45.1047 6.39506 47.2357 0.719299 48.5498L0 48.7168L1.72219 52.2652L2.1579 52.1568C8.02701 50.7332 13.0711 48.4236 17.1575 45.3073C17.9412 46.3142 18.7765 47.2702 19.6531 48.1878C15.3528 51.5846 10.065 53.903 3.93423 55.0845L3.15434 55.2311L4.88685 58.819L5.23103 58.7502C11.9007 57.3813 17.7053 54.7136 22.4749 50.8084C27.1619 54.7226 32.8776 57.4387 39.4609 58.8866L39.9971 59L41.767 55.4299L40.9382 55.2655C34.8293 54.0203 29.5776 51.6483 25.3237 48.207C26.2093 47.3097 27.0549 46.3512 27.849 45.3634C31.9224 48.532 36.9717 50.895 42.8666 52.3786L43.2404 52.4704L45 48.9309L44.3129 48.7767V48.7754ZM22.431 18.5197C20.4974 18.5095 18.5432 18.6994 16.629 19.0805L5.2813 21.3263C6.38732 11.3095 13.8652 3.81122 22.752 3.85838C31.6375 3.90426 39.0368 11.4892 40.0358 21.5264L28.0449 19.0997C26.1848 18.7288 24.3028 18.5287 22.431 18.5197ZM22.5599 40.088C23.3037 41.0439 24.1287 41.9603 24.995 42.827C24.2306 43.8059 23.4056 44.7529 22.5406 45.6209C21.6847 44.735 20.87 43.788 20.1069 42.7926C20.9821 41.9348 21.8058 41.0273 22.5599 40.0892V40.088ZM16.2126 23.0878C16.3492 25.8944 16.995 30.1476 19.2483 34.7896C19.559 35.4332 19.8993 36.0756 20.2706 36.7091C19.5564 37.7071 18.7624 38.6553 17.9077 39.5437C17.3663 38.6388 16.8545 37.6841 16.384 36.7193C13.8111 31.4247 12.9268 26.408 12.6264 23.8015L16.2126 23.0891V23.0878ZM25.2128 22.5537C25.1213 24.6173 24.6444 28.534 22.5986 32.7923C20.5271 28.3619 20.1545 24.2107 20.0927 22.476C21.7942 22.3243 23.5139 22.3536 25.2141 22.5525L25.2128 22.5537ZM24.8854 36.7435C25.2631 36.1139 25.6112 35.4638 25.9283 34.8342C28.2099 30.256 28.9099 26.0397 29.0865 23.2547L32.6752 23.9851C32.3375 26.5788 31.39 31.5751 28.7823 36.8034C28.3014 37.7733 27.7807 38.7229 27.2186 39.6215C26.373 38.7051 25.5893 37.7491 24.8854 36.7435Z" fill="white"/>
</svg>
