<svg width="18" height="18" viewBox="0 0 18 18" fill="none" xmlns="http://www.w3.org/2000/svg">
<path fill-rule="evenodd" clip-rule="evenodd" d="M5.75238 1.49939H12.2549C14.7974 1.49939 16.4999 3.28439 16.4999 5.93939V12.0676C16.4999 14.7151 14.7974 16.4994 12.2549 16.4994H5.75238C3.20988 16.4994 1.49988 14.7151 1.49988 12.0676V5.93939C1.49988 3.28439 3.20988 1.49939 5.75238 1.49939ZM8.99244 6.79515C8.63994 6.79515 8.34744 6.5019 8.34744 6.14265C8.34744 5.77515 8.63994 5.48265 9.00744 5.48265C9.36744 5.48265 9.65994 5.77515 9.65994 6.14265C9.65994 6.5019 9.36744 6.79515 8.99244 6.79515ZM9.65232 11.8351C9.65232 12.1951 9.35981 12.4876 8.99231 12.4876C8.63231 12.4876 8.33981 12.1951 8.33981 11.8351V8.52013C8.33981 8.15938 8.63231 7.86013 8.99231 7.86013C9.35981 7.86013 9.65232 8.15938 9.65232 8.52013V11.8351Z" fill="#A6ABC8"/>
</svg>
